<svg version="1.1" xmlns="http://www.w3.org/2000/svg" width="32" height="32" viewBox="0 0 1024 1024">
<path d="M0 0 C337.92 0 675.84 0 1024 0 C1024 337.92 1024 675.84 1024 1024 C686.08 1024 348.16 1024 0 1024 C0 686.08 0 348.16 0 0 Z " fill="#091423" transform="translate(0,0)"/>
<path d="M0 0 C2.45691741 -0.00570861 4.91383218 -0.01267476 7.3707428 -0.02079773 C13.33055937 -0.03683798 19.29022408 -0.03883995 25.25004735 -0.03358483 C30.10040771 -0.02952772 34.95073706 -0.03100489 39.80109596 -0.03633308 C40.49395283 -0.03708151 41.18680969 -0.03782993 41.90066222 -0.03860103 C43.30867038 -0.04013267 44.71667854 -0.04167102 46.1246867 -0.043216 C59.30373639 -0.05691687 72.4827266 -0.05152112 85.66177491 -0.04003078 C97.68379244 -0.03010836 109.70565583 -0.04302618 121.72764959 -0.06696498 C134.1074134 -0.09142805 146.48710565 -0.10094576 158.86689311 -0.09431225 C165.80286027 -0.09083502 172.73870911 -0.09295193 179.67465782 -0.11056328 C186.20257514 -0.12693448 192.73027205 -0.12199203 199.25818443 -0.10325813 C201.64247586 -0.09959295 204.02678932 -0.10261962 206.41106033 -0.11314392 C229.36376756 -0.20665563 250.38345789 2.34381711 267.56762695 19.07202148 C277.84434145 29.93077999 284.96413757 41.80793412 284.88818359 57.11010742 C284.88832962 57.8812236 284.88847565 58.65233978 284.8886261 59.44682312 C284.88793069 61.98988683 284.88015569 64.53287685 284.87231445 67.07592773 C284.87044895 68.84140991 284.86902567 70.60689261 284.86802673 72.37237549 C284.86421195 77.0149682 284.85439052 81.65752953 284.84332275 86.30010986 C284.83308631 91.03918025 284.82852432 95.77825572 284.82348633 100.51733398 C284.81276733 109.81292067 284.79570337 119.10848409 284.7746582 128.40405273 C281.67380543 127.19622874 279.00279638 125.99504915 276.2746582 124.09155273 C260.02832572 113.71109833 239.11412928 111.83578414 220.4074707 115.02124023 C191.11287839 122.14014116 167.02364027 143.30066164 148.7746582 166.40405273 C148.3439502 166.94723145 147.91324219 167.49041016 147.46948242 168.05004883 C142.89959915 173.81551237 138.37175539 179.6119894 133.90185547 185.45532227 C125.37146153 196.60188109 116.46875303 207.25429814 106.7746582 217.40405273 C106.12400391 218.08870605 105.47334961 218.77335938 104.80297852 219.47875977 C95.77926663 228.91917845 86.80196368 237.37580623 75.7746582 244.40405273 C74.82848633 245.0344043 73.88231445 245.66475586 72.9074707 246.31420898 C50.20333589 260.62221638 20.89577168 265.47508173 -5.37890625 260.32324219 C-29.91646653 254.5121023 -52.91701371 240.6056968 -70.2253418 222.40405273 C-70.81575256 221.7957814 -71.40616333 221.18751007 -72.01446533 220.56080627 C-77.47294385 214.34876143 -78.18861175 209.6943584 -77.90893555 201.58764648 C-77.8940786 199.94204491 -77.8940786 199.94204491 -77.87892151 198.26319885 C-77.83999722 194.78790853 -77.7522111 191.31587469 -77.6628418 187.84155273 C-77.62769981 185.47376008 -77.5957659 183.10591749 -77.56713867 180.73803711 C-77.49030796 174.95894695 -77.37344069 169.18173253 -77.2253418 163.40405273 C-74.67201755 165.88238424 -72.74144123 168.46533153 -70.7253418 171.40405273 C-56.76883235 190.62908118 -36.7427094 203.32523932 -13.3347168 207.70874023 C13.16893351 211.82427926 39.0390794 206.16976847 60.7746582 190.40405273 C80.1228227 175.84448975 93.26997848 157.00638372 107.22680664 137.55883789 C129.45245388 106.61821288 156.67629217 71.99816378 196.60668945 64.69262695 C213.01573481 62.50844997 229.08288758 64.81000583 244.55981445 70.28295898 C246.96843052 71.12290165 249.28995762 71.85258552 251.7746582 72.40405273 C243.74311245 64.53431468 235.52513228 58.0195232 225.7746582 52.40405273 C224.68668945 51.7762793 223.5987207 51.14850586 222.4777832 50.50170898 C199.69335805 38.28048563 171.80683934 34.10178286 146.7746582 41.40405273 C117.92697 50.80873259 95.36088627 69.93726838 76.7746582 93.40405273 C66.78651457 105.72755369 56.62774248 117.83199442 45.7746582 129.40405273 C45.18426758 130.04858398 44.59387695 130.69311523 43.9855957 131.35717773 C29.17499836 146.97031976 7.89147938 158.77789362 -13.87768555 159.64233398 C-31.88282921 160.02052888 -48.45219632 157.19443724 -62.6003418 145.09155273 C-72.51520248 135.54214365 -77.23195826 124.64890833 -77.74291992 110.80053711 C-77.78374713 108.03232587 -77.77452501 105.26617644 -77.7565918 102.49780273 C-77.75929656 101.00052642 -77.76318708 99.50325185 -77.76818848 98.00598145 C-77.77403748 94.88963869 -77.76567155 91.77375899 -77.74682617 88.6574707 C-77.72403871 84.70048898 -77.7371869 80.74459314 -77.76111603 76.78765106 C-77.7757001 73.70229182 -77.77091105 70.61718211 -77.76060486 67.53181458 C-77.75797219 66.07444626 -77.76108259 64.61705386 -77.77052307 63.15971375 C-77.8601627 45.44189372 -72.84740244 31.74587038 -60.70581055 18.79077148 C-42.86290927 1.62224758 -23.46422209 -0.04923537 0 0 Z " fill="#1FACED" transform="translate(408.225341796875,329.595947265625)"/>
<path d="M0 0 C0.33 0 0.66 0 1 0 C1 41.91 1 83.82 1 127 C-4.445 123.535 -4.445 123.535 -10 120 C-12.46813181 118.68819766 -14.96513895 117.42770093 -17.5 116.25 C-18.6653125 115.69828125 -19.830625 115.1465625 -21.03125 114.578125 C-30.14805397 110.75491098 -38.83573547 109.44293497 -48.6875 109.5 C-50.39607178 109.50749268 -50.39607178 109.50749268 -52.13916016 109.51513672 C-61.60544697 109.70980579 -69.31124319 111.21489789 -78 115 C-79.05960938 115.45761719 -80.11921875 115.91523438 -81.2109375 116.38671875 C-110.09749951 129.93889758 -129.4250536 154.59167405 -147.40942383 179.97460938 C-169.37884575 210.91920851 -194.82461573 237.27419788 -233 246 C-234.14843384 246.26828613 -234.14843384 246.26828613 -235.32006836 246.54199219 C-241.07637627 247.52576131 -246.98587663 247.24270973 -252.8125 247.25 C-253.50986267 247.25167175 -254.20722534 247.25334351 -254.92572021 247.25506592 C-267.03108427 247.25681116 -278.69998107 246.83086311 -290 242 C-280.07801443 251.92198557 -260.36192384 256.1969895 -247 259 C-246.23059082 259.17523193 -245.46118164 259.35046387 -244.66845703 259.53100586 C-214.92934572 264.75779752 -186.83711979 255.66939348 -162.609375 238.7109375 C-156.60322827 234.32431688 -151.30342339 229.19459801 -146 224 C-144.91138672 222.98679687 -144.91138672 222.98679687 -143.80078125 221.953125 C-138.01452156 216.46028619 -133.27157069 210.16055159 -128.42333984 203.85107422 C-83.385535 145.27875238 -83.385535 145.27875238 -48 140 C-33.54078753 138.27831779 -20.56211744 138.75214511 -8 147 C-2.75089893 151.68113551 0.72649014 156.32851635 1.26069641 163.4994812 C1.27552867 164.86009557 1.27949347 166.22085635 1.2746582 167.58154297 C1.2823246 168.70229469 1.2823246 168.70229469 1.29014587 169.84568787 C1.30401992 172.31126985 1.30308496 174.77657113 1.30078125 177.2421875 C1.304673 178.97030744 1.30900866 180.69842642 1.31376648 182.42654419 C1.32122668 186.05294893 1.32094152 189.67925637 1.31567383 193.30566406 C1.30991826 197.91264322 1.32671558 202.5192152 1.3500185 207.12612724 C1.36489354 210.70049299 1.36560837 214.2747642 1.36250877 217.84915543 C1.36301639 219.54491092 1.3681469 221.24067251 1.37832069 222.93639755 C1.44909666 236.39767796 0.93900526 250.13082533 -5.625 262.25 C-5.97199951 262.91128906 -6.31899902 263.57257813 -6.67651367 264.25390625 C-15.23883863 280.01302121 -28.27112217 289.7037708 -44.85546875 296.1015625 C-51.90182598 298.11480742 -58.99118837 298.14861243 -66.26268005 298.14717102 C-67.27024182 298.15084771 -68.27780358 298.1545244 -69.31589752 298.1583125 C-72.67862119 298.16929023 -76.04131389 298.17318311 -79.40405273 298.17700195 C-81.82096961 298.18327112 -84.23788553 298.18991832 -86.65480042 298.19691467 C-93.89669516 298.21609299 -101.13858729 298.22673557 -108.38049969 298.23564246 C-111.79973429 298.24003711 -115.21896736 298.24540081 -118.63820076 298.25063133 C-130.01939669 298.26763567 -141.4005917 298.28212712 -152.78179836 298.28938007 C-155.73010192 298.29128963 -158.67840546 298.29321001 -161.62670898 298.29516602 C-162.35939816 298.29564976 -163.09208733 298.2961335 -163.84697921 298.2966319 C-175.7011105 298.30492229 -187.55514057 298.33024599 -199.40922772 298.36274669 C-211.60804894 298.39591713 -223.80681888 298.41383778 -236.00568539 298.41702431 C-242.84336165 298.41918012 -249.68089025 298.42779141 -256.51852226 298.45348549 C-262.95771897 298.47762812 -269.396723 298.48095595 -275.83595848 298.47072411 C-278.18800489 298.47023125 -280.54006481 298.47647708 -282.89207077 298.49028015 C-305.89996732 298.61765653 -326.65657442 295.92564704 -343.859375 279.20703125 C-344.56578125 278.47871094 -345.2721875 277.75039063 -346 277 C-346.96679688 276.04673828 -346.96679688 276.04673828 -347.953125 275.07421875 C-358.34791646 264.15968772 -362.18309595 250.20651153 -362.11352539 235.49438477 C-362.11367142 234.67406265 -362.11381744 233.85374054 -362.1139679 233.00856018 C-362.11327584 230.31948119 -362.10551679 227.63047302 -362.09765625 224.94140625 C-362.09578956 223.06811053 -362.09436684 221.19481433 -362.09336853 219.32151794 C-362.08956315 214.40771114 -362.07974988 209.49393422 -362.06866455 204.58013916 C-362.05840776 199.55928959 -362.05386179 194.53843516 -362.04882812 189.51757812 C-362.03812574 179.67837234 -362.02107322 169.83918866 -362 160 C-358.86497276 163.10830368 -355.91002991 166.25307349 -353.0625 169.625 C-338.99251778 185.24801156 -319.73480917 196.20209371 -300 203 C-299.35724121 203.22445801 -298.71448242 203.44891602 -298.05224609 203.68017578 C-272.57880196 212.14102149 -242.5915587 207.71532641 -218.90332031 195.95947266 C-214.42738015 193.56329556 -210.19390938 190.85589309 -206 188 C-204.99582031 187.33226562 -203.99164063 186.66453125 -202.95703125 185.9765625 C-195.20134363 180.41815248 -188.49805034 173.78040562 -181.75 167.0625 C-180.82695068 166.14509033 -179.90390137 165.22768066 -178.95288086 164.2824707 C-172.8895147 158.15484974 -167.35098284 151.75448714 -162 145 C-160.95007144 143.69983179 -159.8993926 142.40026877 -158.84765625 141.1015625 C-157.91834276 139.94345245 -156.98995241 138.78460101 -156.0625 137.625 C-155.55871826 136.99561523 -155.05493652 136.36623047 -154.53588867 135.71777344 C-151.24767557 131.59702927 -148.01333474 127.4388475 -144.8125 123.25 C-124.58264241 96.83213897 -101.23949133 71.11041689 -68 62 C-66.22689453 61.46439453 -66.22689453 61.46439453 -64.41796875 60.91796875 C-58.91202372 59.5663382 -53.38975008 59.67053324 -47.75 59.6875 C-46.69425781 59.67138672 -45.63851563 59.65527344 -44.55078125 59.63867188 C-34.86947034 59.63274696 -25.88328829 61.50831535 -16.9375 65.25 C-16.05964844 65.60578125 -15.18179687 65.9615625 -14.27734375 66.328125 C-9.31725433 68.85842092 -4.69767842 72.01056828 0 75 C0 50.25 0 25.5 0 0 Z " fill="#08438A" transform="translate(693,383)"/>
<path d="M0 0 C31.81391945 -0.091424 63.62780122 -0.162128 95.44182151 -0.20426132 C99.2052738 -0.20926362 102.96872583 -0.21444096 106.73217773 -0.21972656 C107.8559412 -0.22130043 107.8559412 -0.22130043 109.00240696 -0.22290608 C121.10276709 -0.24026955 133.20305052 -0.27178462 145.30336528 -0.30861118 C157.73696903 -0.34613401 170.17053285 -0.36825971 182.60419089 -0.37635398 C190.26471221 -0.38181836 197.92501666 -0.399021 205.58547116 -0.43166587 C211.47833583 -0.45548549 217.37109168 -0.45779144 223.26400566 -0.45243073 C225.66765164 -0.45352406 228.07130645 -0.46138494 230.47490311 -0.4768219 C253.49668345 -0.61732725 274.55163381 1.88411533 291.79296875 18.66796875 C302.06968325 29.52672726 309.18947937 41.40388139 309.11352539 56.70605469 C309.11367142 57.47717087 309.11381744 58.24828705 309.1139679 59.04277039 C309.11327249 61.5858341 309.10549749 64.12882412 309.09765625 66.671875 C309.09579075 68.43735718 309.09436747 70.20283987 309.09336853 71.96832275 C309.08955375 76.61091546 309.07973232 81.2534768 309.06866455 85.89605713 C309.0584281 90.63512752 309.05386612 95.37420299 309.04882812 100.11328125 C309.03810913 109.40886794 309.02104517 118.70443136 309 128 C305.94165737 126.80811377 303.30720766 125.63887863 300.625 123.75 C294.57659668 119.83838781 287.7044187 117.54034615 281 115 C282.8125 113.9375 282.8125 113.9375 285 113 C285.99 113.33 286.98 113.66 288 114 C288 114.66 288 115.32 288 116 C289.65 116 291.3 116 293 116 C293 116.66 293 117.32 293 118 C293.69867187 118.19335938 294.39734375 118.38671875 295.1171875 118.5859375 C296.02726562 118.84632813 296.93734375 119.10671875 297.875 119.375 C298.77992188 119.63023437 299.68484375 119.88546875 300.6171875 120.1484375 C303 121 303 121 305 123 C305.94238698 120.17283905 306.13465647 118.36823877 306.125 115.4375 C306.12886719 114.25994141 306.12886719 114.25994141 306.1328125 113.05859375 C306.12976366 110.93561023 306.12976366 110.93561023 305 109 C305.66 109 306.32 109 307 109 C307 90.19 307 71.38 307 52 C306.34 51.67 305.68 51.34 305 51 C304.7265625 49.1796875 304.7265625 49.1796875 304.625 46.875 C304.33492625 43.43242666 303.75589438 41.12883266 301.9375 38.1875 C300 35 300 35 300 31 C299.34 31 298.68 31 298 31 C298 30.01 298 29.02 298 28 C296.824375 27.6596875 296.824375 27.6596875 295.625 27.3125 C292.33125925 25.66562962 292.20486745 24.35641647 291 21 C290.01 20.67 289.02 20.34 288 20 C288 19.34 288 18.68 288 18 C287.01 18 286.02 18 285 18 C283.97895449 17.02149805 282.9793879 16.02019573 282 15 C281.01 14.67 280.02 14.34 279 14 C278.34 14.33 277.68 14.66 277 15 C277.33 13.35 277.66 11.7 278 10 C276.02 9.67 274.04 9.34 272 9 C272 8.34 272 7.68 272 7 C270.700625 7.061875 270.700625 7.061875 269.375 7.125 C265.81917267 6.99330269 261.65203164 6.65203164 259 4 C257.33382885 3.95936168 255.66611905 3.957279 254 4 C254 3.34 254 2.68 254 2 C169.85 2 85.7 2 -1 2 C-0.67 1.34 -0.34 0.68 0 0 Z " fill="#23CFEA" transform="translate(384,330)"/>
</svg>