<?xml version="1.0" encoding="UTF-8"?>
<svg version="1.1" xmlns="http://www.w3.org/2000/svg" width="1024" height="1024">
<path d="M0 0 C337.92 0 675.84 0 1024 0 C1024 337.92 1024 675.84 1024 1024 C686.08 1024 348.16 1024 0 1024 C0 686.08 0 348.16 0 0 Z " fill="#091423" transform="translate(0,0)"/>
<path d="M0 0 C2.45691741 -0.00570861 4.91383218 -0.01267476 7.3707428 -0.02079773 C13.33055937 -0.03683798 19.29022408 -0.03883995 25.25004735 -0.03358483 C30.10040771 -0.02952772 34.95073706 -0.03100489 39.80109596 -0.03633308 C40.49395283 -0.03708151 41.18680969 -0.03782993 41.90066222 -0.03860103 C43.30867038 -0.04013267 44.71667854 -0.04167102 46.1246867 -0.043216 C59.30373639 -0.05691687 72.4827266 -0.05152112 85.66177491 -0.04003078 C97.68379244 -0.03010836 109.70565583 -0.04302618 121.72764959 -0.06696498 C134.1074134 -0.09142805 146.48710565 -0.10094576 158.86689311 -0.09431225 C165.80286027 -0.09083502 172.73870911 -0.09295193 179.67465782 -0.11056328 C186.20257514 -0.12693448 192.73027205 -0.12199203 199.25818443 -0.10325813 C201.64247586 -0.09959295 204.02678932 -0.10261962 206.41106033 -0.11314392 C229.36376756 -0.20665563 250.38345789 2.34381711 267.56762695 19.07202148 C277.84434145 29.93077999 284.96413757 41.80793412 284.88818359 57.11010742 C284.88832962 57.8812236 284.88847565 58.65233978 284.8886261 59.44682312 C284.88793069 61.98988683 284.88015569 64.53287685 284.87231445 67.07592773 C284.87044895 68.84140991 284.86902567 70.60689261 284.86802673 72.37237549 C284.86421195 77.0149682 284.85439052 81.65752953 284.84332275 86.30010986 C284.83308631 91.03918025 284.82852432 95.77825572 284.82348633 100.51733398 C284.81276733 109.81292067 284.79570337 119.10848409 284.7746582 128.40405273 C281.67380543 127.19622874 279.00279638 125.99504915 276.2746582 124.09155273 C260.02832572 113.71109833 239.11412928 111.83578414 220.4074707 115.02124023 C191.11287839 122.14014116 167.02364027 143.30066164 148.7746582 166.40405273 C148.3439502 166.94723145 147.91324219 167.49041016 147.46948242 168.05004883 C142.89959915 173.81551237 138.37175539 179.6119894 133.90185547 185.45532227 C125.37146153 196.60188109 116.46875303 207.25429814 106.7746582 217.40405273 C106.12400391 218.08870605 105.47334961 218.77335938 104.80297852 219.47875977 C95.77926663 228.91917845 86.80196368 237.37580623 75.7746582 244.40405273 C74.82848633 245.0344043 73.88231445 245.66475586 72.9074707 246.31420898 C50.20333589 260.62221638 20.89577168 265.47508173 -5.37890625 260.32324219 C-29.91646653 254.5121023 -52.91701371 240.6056968 -70.2253418 222.40405273 C-70.81575256 221.7957814 -71.40616333 221.18751007 -72.01446533 220.56080627 C-77.47294385 214.34876143 -78.18861175 209.6943584 -77.90893555 201.58764648 C-77.8940786 199.94204491 -77.8940786 199.94204491 -77.87892151 198.26319885 C-77.83999722 194.78790853 -77.7522111 191.31587469 -77.6628418 187.84155273 C-77.62769981 185.47376008 -77.5957659 183.10591749 -77.56713867 180.73803711 C-77.49030796 174.95894695 -77.37344069 169.18173253 -77.2253418 163.40405273 C-74.67201755 165.88238424 -72.74144123 168.46533153 -70.7253418 171.40405273 C-56.76883235 190.62908118 -36.7427094 203.32523932 -13.3347168 207.70874023 C13.16893351 211.82427926 39.0390794 206.16976847 60.7746582 190.40405273 C80.1228227 175.84448975 93.26997848 157.00638372 107.22680664 137.55883789 C129.45245388 106.61821288 156.67629217 71.99816378 196.60668945 64.69262695 C213.01573481 62.50844997 229.08288758 64.81000583 244.55981445 70.28295898 C246.96843052 71.12290165 249.28995762 71.85258552 251.7746582 72.40405273 C243.74311245 64.53431468 235.52513228 58.0195232 225.7746582 52.40405273 C224.68668945 51.7762793 223.5987207 51.14850586 222.4777832 50.50170898 C199.69335805 38.28048563 171.80683934 34.10178286 146.7746582 41.40405273 C117.92697 50.80873259 95.36088627 69.93726838 76.7746582 93.40405273 C66.78651457 105.72755369 56.62774248 117.83199442 45.7746582 129.40405273 C45.18426758 130.04858398 44.59387695 130.69311523 43.9855957 131.35717773 C29.17499836 146.97031976 7.89147938 158.77789362 -13.87768555 159.64233398 C-31.88282921 160.02052888 -48.45219632 157.19443724 -62.6003418 145.09155273 C-72.51520248 135.54214365 -77.23195826 124.64890833 -77.74291992 110.80053711 C-77.78374713 108.03232587 -77.77452501 105.26617644 -77.7565918 102.49780273 C-77.75929656 101.00052642 -77.76318708 99.50325185 -77.76818848 98.00598145 C-77.77403748 94.88963869 -77.76567155 91.77375899 -77.74682617 88.6574707 C-77.72403871 84.70048898 -77.7371869 80.74459314 -77.76111603 76.78765106 C-77.7757001 73.70229182 -77.77091105 70.61718211 -77.76060486 67.53181458 C-77.75797219 66.07444626 -77.76108259 64.61705386 -77.77052307 63.15971375 C-77.8601627 45.44189372 -72.84740244 31.74587038 -60.70581055 18.79077148 C-42.86290927 1.62224758 -23.46422209 -0.04923537 0 0 Z " fill="#1FACED" transform="translate(408.225341796875,329.595947265625)"/>
<path d="M0 0 C0.33 0 0.66 0 1 0 C1 41.91 1 83.82 1 127 C-4.445 123.535 -4.445 123.535 -10 120 C-12.46813181 118.68819766 -14.96513895 117.42770093 -17.5 116.25 C-18.6653125 115.69828125 -19.830625 115.1465625 -21.03125 114.578125 C-30.14805397 110.75491098 -38.83573547 109.44293497 -48.6875 109.5 C-50.39607178 109.50749268 -50.39607178 109.50749268 -52.13916016 109.51513672 C-61.60544697 109.70980579 -69.31124319 111.21489789 -78 115 C-79.05960938 115.45761719 -80.11921875 115.91523438 -81.2109375 116.38671875 C-110.09749951 129.93889758 -129.4250536 154.59167405 -147.40942383 179.97460938 C-169.37884575 210.91920851 -194.82461573 237.27419788 -233 246 C-234.14843384 246.26828613 -234.14843384 246.26828613 -235.32006836 246.54199219 C-241.07637627 247.52576131 -246.98587663 247.24270973 -252.8125 247.25 C-253.50986267 247.25167175 -254.20722534 247.25334351 -254.92572021 247.25506592 C-267.03108427 247.25681116 -278.69998107 246.83086311 -290 242 C-280.07801443 251.92198557 -260.36192384 256.1969895 -247 259 C-246.23059082 259.17523193 -245.46118164 259.35046387 -244.66845703 259.53100586 C-214.92934572 264.75779752 -186.83711979 255.66939348 -162.609375 238.7109375 C-156.60322827 234.32431688 -151.30342339 229.19459801 -146 224 C-144.91138672 222.98679687 -144.91138672 222.98679687 -143.80078125 221.953125 C-138.01452156 216.46028619 -133.27157069 210.16055159 -128.42333984 203.85107422 C-83.385535 145.27875238 -83.385535 145.27875238 -48 140 C-33.54078753 138.27831779 -20.56211744 138.75214511 -8 147 C-2.75089893 151.68113551 0.72649014 156.32851635 1.26069641 163.4994812 C1.27552867 164.86009557 1.27949347 166.22085635 1.2746582 167.58154297 C1.2823246 168.70229469 1.2823246 168.70229469 1.29014587 169.84568787 C1.30401992 172.31126985 1.30308496 174.77657113 1.30078125 177.2421875 C1.304673 178.97030744 1.30900866 180.69842642 1.31376648 182.42654419 C1.32122668 186.05294893 1.32094152 189.67925637 1.31567383 193.30566406 C1.30991826 197.91264322 1.32671558 202.5192152 1.3500185 207.12612724 C1.36489354 210.70049299 1.36560837 214.2747642 1.36250877 217.84915543 C1.36301639 219.54491092 1.3681469 221.24067251 1.37832069 222.93639755 C1.44909666 236.39767796 0.93900526 250.13082533 -5.625 262.25 C-5.97199951 262.91128906 -6.31899902 263.57257813 -6.67651367 264.25390625 C-15.23883863 280.01302121 -28.27112217 289.7037708 -44.85546875 296.1015625 C-51.90182598 298.11480742 -58.99118837 298.14861243 -66.26268005 298.14717102 C-67.27024182 298.15084771 -68.27780358 298.1545244 -69.31589752 298.1583125 C-72.67862119 298.16929023 -76.04131389 298.17318311 -79.40405273 298.17700195 C-81.82096961 298.18327112 -84.23788553 298.18991832 -86.65480042 298.19691467 C-93.89669516 298.21609299 -101.13858729 298.22673557 -108.38049969 298.23564246 C-111.79973429 298.24003711 -115.21896736 298.24540081 -118.63820076 298.25063133 C-130.01939669 298.26763567 -141.4005917 298.28212712 -152.78179836 298.28938007 C-155.73010192 298.29128963 -158.67840546 298.29321001 -161.62670898 298.29516602 C-162.35939816 298.29564976 -163.09208733 298.2961335 -163.84697921 298.2966319 C-175.7011105 298.30492229 -187.55514057 298.33024599 -199.40922772 298.36274669 C-211.60804894 298.39591713 -223.80681888 298.41383778 -236.00568539 298.41702431 C-242.84336165 298.41918012 -249.68089025 298.42779141 -256.51852226 298.45348549 C-262.95771897 298.47762812 -269.396723 298.48095595 -275.83595848 298.47072411 C-278.18800489 298.47023125 -280.54006481 298.47647708 -282.89207077 298.49028015 C-305.89996732 298.61765653 -326.65657442 295.92564704 -343.859375 279.20703125 C-344.56578125 278.47871094 -345.2721875 277.75039063 -346 277 C-346.96679688 276.04673828 -346.96679688 276.04673828 -347.953125 275.07421875 C-358.34791646 264.15968772 -362.18309595 250.20651153 -362.11352539 235.49438477 C-362.11367142 234.67406265 -362.11381744 233.85374054 -362.1139679 233.00856018 C-362.11327584 230.31948119 -362.10551679 227.63047302 -362.09765625 224.94140625 C-362.09578956 223.06811053 -362.09436684 221.19481433 -362.09336853 219.32151794 C-362.08956315 214.40771114 -362.07974988 209.49393422 -362.06866455 204.58013916 C-362.05840776 199.55928959 -362.05386179 194.53843516 -362.04882812 189.51757812 C-362.03812574 179.67837234 -362.02107322 169.83918866 -362 160 C-358.86497276 163.10830368 -355.91002991 166.25307349 -353.0625 169.625 C-338.99251778 185.24801156 -319.73480917 196.20209371 -300 203 C-299.35724121 203.22445801 -298.71448242 203.44891602 -298.05224609 203.68017578 C-272.57880196 212.14102149 -242.5915587 207.71532641 -218.90332031 195.95947266 C-214.42738015 193.56329556 -210.19390938 190.85589309 -206 188 C-204.99582031 187.33226562 -203.99164063 186.66453125 -202.95703125 185.9765625 C-195.20134363 180.41815248 -188.49805034 173.78040562 -181.75 167.0625 C-180.82695068 166.14509033 -179.90390137 165.22768066 -178.95288086 164.2824707 C-172.8895147 158.15484974 -167.35098284 151.75448714 -162 145 C-160.95007144 143.69983179 -159.8993926 142.40026877 -158.84765625 141.1015625 C-157.91834276 139.94345245 -156.98995241 138.78460101 -156.0625 137.625 C-155.55871826 136.99561523 -155.05493652 136.36623047 -154.53588867 135.71777344 C-151.24767557 131.59702927 -148.01333474 127.4388475 -144.8125 123.25 C-124.58264241 96.83213897 -101.23949133 71.11041689 -68 62 C-66.22689453 61.46439453 -66.22689453 61.46439453 -64.41796875 60.91796875 C-58.91202372 59.5663382 -53.38975008 59.67053324 -47.75 59.6875 C-46.69425781 59.67138672 -45.63851563 59.65527344 -44.55078125 59.63867188 C-34.86947034 59.63274696 -25.88328829 61.50831535 -16.9375 65.25 C-16.05964844 65.60578125 -15.18179687 65.9615625 -14.27734375 66.328125 C-9.31725433 68.85842092 -4.69767842 72.01056828 0 75 C0 50.25 0 25.5 0 0 Z " fill="#08438A" transform="translate(693,383)"/>
<path d="M0 0 C31.81391945 -0.091424 63.62780122 -0.162128 95.44182151 -0.20426132 C99.2052738 -0.20926362 102.96872583 -0.21444096 106.73217773 -0.21972656 C107.8559412 -0.22130043 107.8559412 -0.22130043 109.00240696 -0.22290608 C121.10276709 -0.24026955 133.20305052 -0.27178462 145.30336528 -0.30861118 C157.73696903 -0.34613401 170.17053285 -0.36825971 182.60419089 -0.37635398 C190.26471221 -0.38181836 197.92501666 -0.399021 205.58547116 -0.43166587 C211.47833583 -0.45548549 217.37109168 -0.45779144 223.26400566 -0.45243073 C225.66765164 -0.45352406 228.07130645 -0.46138494 230.47490311 -0.4768219 C253.49668345 -0.61732725 274.55163381 1.88411533 291.79296875 18.66796875 C302.06968325 29.52672726 309.18947937 41.40388139 309.11352539 56.70605469 C309.11367142 57.47717087 309.11381744 58.24828705 309.1139679 59.04277039 C309.11327249 61.5858341 309.10549749 64.12882412 309.09765625 66.671875 C309.09579075 68.43735718 309.09436747 70.20283987 309.09336853 71.96832275 C309.08955375 76.61091546 309.07973232 81.2534768 309.06866455 85.89605713 C309.0584281 90.63512752 309.05386612 95.37420299 309.04882812 100.11328125 C309.03810913 109.40886794 309.02104517 118.70443136 309 128 C305.94165737 126.80811377 303.30720766 125.63887863 300.625 123.75 C294.57659668 119.83838781 287.7044187 117.54034615 281 115 C282.8125 113.9375 282.8125 113.9375 285 113 C285.99 113.33 286.98 113.66 288 114 C288 114.66 288 115.32 288 116 C289.65 116 291.3 116 293 116 C293 116.66 293 117.32 293 118 C293.69867187 118.19335938 294.39734375 118.38671875 295.1171875 118.5859375 C296.02726562 118.84632813 296.93734375 119.10671875 297.875 119.375 C298.77992188 119.63023437 299.68484375 119.88546875 300.6171875 120.1484375 C303 121 303 121 305 123 C305.94238698 120.17283905 306.13465647 118.36823877 306.125 115.4375 C306.12886719 114.25994141 306.12886719 114.25994141 306.1328125 113.05859375 C306.12976366 110.93561023 306.12976366 110.93561023 305 109 C305.66 109 306.32 109 307 109 C307 90.19 307 71.38 307 52 C306.34 51.67 305.68 51.34 305 51 C304.7265625 49.1796875 304.7265625 49.1796875 304.625 46.875 C304.33492625 43.43242666 303.75589438 41.12883266 301.9375 38.1875 C300 35 300 35 300 31 C299.34 31 298.68 31 298 31 C298 30.01 298 29.02 298 28 C296.824375 27.6596875 296.824375 27.6596875 295.625 27.3125 C292.33125925 25.66562962 292.20486745 24.35641647 291 21 C290.01 20.67 289.02 20.34 288 20 C288 19.34 288 18.68 288 18 C287.01 18 286.02 18 285 18 C283.97895449 17.02149805 282.9793879 16.02019573 282 15 C281.01 14.67 280.02 14.34 279 14 C278.34 14.33 277.68 14.66 277 15 C277.33 13.35 277.66 11.7 278 10 C276.02 9.67 274.04 9.34 272 9 C272 8.34 272 7.68 272 7 C270.700625 7.061875 270.700625 7.061875 269.375 7.125 C265.81917267 6.99330269 261.65203164 6.65203164 259 4 C257.33382885 3.95936168 255.66611905 3.957279 254 4 C254 3.34 254 2.68 254 2 C169.85 2 85.7 2 -1 2 C-0.67 1.34 -0.34 0.68 0 0 Z " fill="#23CFEA" transform="translate(384,330)"/>
<path d="M0 0 C0.495 0.99 0.495 0.99 1 2 C2.11375 1.79375 3.2275 1.5875 4.375 1.375 C13.37137847 0.28405076 21.75455624 3.77079579 30 7 C30 7.66 30 8.32 30 9 C31.32 8.67 32.64 8.34 34 8 C34.495 9.485 34.495 9.485 35 11 C36.65 11.33 38.3 11.66 40 12 C40.33 11.34 40.66 10.68 41 10 C41.495 10.99 41.495 10.99 42 12 C41.67 12.66 41.34 13.32 41 14 C41.99 13.67 42.98 13.34 44 13 C46.1875 14.3125 46.1875 14.3125 48 16 C48 16.66 48 17.32 48 18 C52.455 18.99 52.455 18.99 57 20 C57.495 21.98 57.495 21.98 58 24 C59.485 24.495 59.485 24.495 61 25 C61.495 25.99 61.495 25.99 62 27 C63.485 27.495 63.485 27.495 65 28 C66.5 29.55859375 66.5 29.55859375 68 31.4375 C69.96428932 33.88774632 71.32070868 35.21380578 74 37 C75.05104383 38.63495707 76.05988318 40.29883624 77 42 C75.1875 43.0625 75.1875 43.0625 73 44 C71.515 43.505 71.515 43.505 70 43 C70 42.34 70 41.68 70 41 C68.35 41 66.7 41 65 41 C64.67 40.34 64.34 39.68 64 39 C60.97065509 38.34227572 60.97065509 38.34227572 58 38 C58 37.01 58 36.02 58 35 C63.05255964 35.63156995 67.29593201 37.13459373 72 39 C53.25786641 18.9502757 26.15912313 4.68507675 -1.578125 3.69921875 C-3.46865773 3.68013575 -5.35940268 3.67654935 -7.25 3.6875 C-8.24999023 3.69168945 -9.24998047 3.69587891 -10.28027344 3.70019531 C-21.75837159 3.87393786 -32.18940874 5.87920729 -42.828125 10.328125 C-45 11 -45 11 -48 10 C-47.36191406 9.81824219 -46.72382812 9.63648438 -46.06640625 9.44921875 C-44.82697266 9.07216797 -44.82697266 9.07216797 -43.5625 8.6875 C-42.73878906 8.44386719 -41.91507813 8.20023437 -41.06640625 7.94921875 C-40.38449219 7.63597656 -39.70257812 7.32273437 -39 7 C-38.67 6.01 -38.34 5.02 -38 4 C-25.33966845 2.13911332 -12.79249621 0.5314934 0 0 Z " fill="#3BD1EC" transform="translate(589,364)"/>
<path d="M0 0 C0.33 0 0.66 0 1 0 C1 41.91 1 83.82 1 127 C-2.63 124.69 -6.26 122.38 -10 120 C-12.88764618 118.46370319 -15.7458767 116.9782092 -18.6875 115.5625 C-19.40099609 115.21251953 -20.11449219 114.86253906 -20.84960938 114.50195312 C-22.56359852 113.66221348 -24.28137147 112.83020324 -26 112 C-24.515 111.01 -24.515 111.01 -23 110 C-23 110.66 -23 111.32 -23 112 C-19.37 112 -15.74 112 -12 112 C-12 113.32 -12 114.64 -12 116 C-10.88625 116.37125 -10.88625 116.37125 -9.75 116.75 C-6.79652536 118.09248847 -5.19314329 119.65020362 -3 122 C-2.67 122 -2.34 122 -2 122 C-1.67 107.48 -1.34 92.96 -1 78 C-1.66 78 -2.32 78 -3 78 C-3.33 77.01 -3.66 76.02 -4 75 C-2.68 75 -1.36 75 0 75 C0 50.25 0 25.5 0 0 Z " fill="#1374A7" transform="translate(693,383)"/>
<path d="M0 0 C0.33 1.32 0.66 2.64 1 4 C0.33613281 4.50789063 -0.32773437 5.01578125 -1.01171875 5.5390625 C-10.21713656 12.71525683 -18.83667533 21.08618265 -21.125 33 C-21.29257812 33.845625 -21.46015625 34.69125 -21.6328125 35.5625 C-22.0993069 38.24839518 -22.0993069 38.24839518 -22 42 C-22 42.66 -22 43.32 -22 44 C-22.66 44 -23.32 44 -24 44 C-24.83152009 47.64838001 -25.14729367 51.06134961 -25.20532227 54.80004883 C-25.22526749 55.94085403 -25.24521271 57.08165924 -25.26576233 58.2570343 C-25.28247482 59.47803329 -25.29918732 60.69903229 -25.31640625 61.95703125 C-25.33718735 63.21513107 -25.35796844 64.4732309 -25.37937927 65.76945496 C-25.43360465 69.10172286 -25.48387945 72.43400239 -25.53222656 75.76635742 C-25.58261084 79.17176555 -25.63820823 82.5770882 -25.69335938 85.98242188 C-25.80036699 92.65487967 -25.90216524 99.32740174 -26 106 C-26.33 106 -26.66 106 -27 106 C-27.09327392 97.48886032 -27.16405248 88.97793934 -27.20724869 80.46641254 C-27.22799585 76.51282321 -27.25607296 72.55958723 -27.30175781 68.60620117 C-27.34568168 64.7806324 -27.36923347 60.95540037 -27.37950897 57.12959862 C-27.38681795 55.68055111 -27.4010868 54.23151901 -27.42292023 52.78261757 C-27.68230021 34.83215921 -22.52054495 21.4015713 -10.32421875 8.2734375 C-7.12712182 5.14619311 -3.71087263 2.48739691 0 0 Z " fill="#12BFF1" transform="translate(358,340)"/>
<path d="M0 0 C7.2827508 -0.99310238 12.95656827 2.12663522 19 6 C24.28303041 10.68891799 27.74811197 15.36614637 28.24723816 22.56677246 C28.25602107 23.95789945 28.25388586 25.34912288 28.24291992 26.74023438 C28.24481827 27.50346512 28.24671661 28.26669586 28.24867249 29.05305481 C28.25236602 31.56672561 28.24169574 34.08010504 28.23046875 36.59375 C28.22927594 38.34582485 28.228824 40.09790035 28.2290802 41.84997559 C28.22751775 45.5183514 28.21924657 49.18662929 28.20581055 52.85498047 C28.18882116 57.55249415 28.1849964 62.2499003 28.18575573 66.9474411 C28.18548354 70.56428042 28.17999439 74.18109633 28.17275429 77.79792786 C28.1695767 79.52984948 28.16760234 81.26177374 28.16686058 82.99369812 C28.16468736 85.41576637 28.15592192 87.83772173 28.14526367 90.25976562 C28.14594345 91.32908073 28.14594345 91.32908073 28.14663696 92.41999817 C28.12320274 96.07039661 27.86451096 99.44941347 27 103 C26.67 103 26.34 103 26 103 C25.99857498 101.95287842 25.99714996 100.90575684 25.99568176 99.8269043 C25.97898403 89.93993569 25.93612562 80.05337722 25.86790943 70.16662598 C25.83367557 65.08416895 25.80853504 60.00201136 25.80444336 54.91943359 C25.80015271 50.01082324 25.77162632 45.10288798 25.72656822 40.19448853 C25.71361772 38.32553037 25.70927684 36.45649133 25.71384621 34.5874939 C25.71876975 31.9612413 25.69258403 29.33694857 25.65942383 26.7109375 C25.67236229 25.56186165 25.67236229 25.56186165 25.68556213 24.38957214 C25.56293496 18.5644179 23.69637303 14.50227593 20 10 C17.00628895 7.61384998 17.00628895 7.61384998 14 6 C13.01 5.34 12.02 4.68 11 4 C8.37468476 3.83286431 8.37468476 3.83286431 6 4 C6 3.34 6 2.68 6 2 C3.03 1.505 3.03 1.505 0 1 C0 0.67 0 0.34 0 0 Z " fill="#09559B" transform="translate(666,524)"/>
<path d="M0 0 C1.06347656 0.21462891 1.06347656 0.21462891 2.1484375 0.43359375 C5.37536415 1.07455863 8.33737171 1.09650995 11.625 1.0625 C12.75164062 1.05347656 13.87828125 1.04445313 15.0390625 1.03515625 C16.01617187 1.02355469 16.99328125 1.01195312 18 1 C21 1 21 1 24 3 C22.06775535 4.93224465 19.16389611 4.12018438 16.59291077 4.12442017 C15.67078293 4.12082489 14.74865509 4.11722961 13.79858398 4.11352539 C12.34995972 4.11374443 12.34995972 4.11374443 10.87207031 4.1139679 C7.66338901 4.11326834 4.45476497 4.10547397 1.24609375 4.09765625 C-0.97208118 4.09579222 -3.19025652 4.09436825 -5.40843201 4.09336853 C-11.25940071 4.08954216 -17.11034477 4.07971086 -22.96130371 4.06866455 C-28.92667304 4.05845299 -34.89204633 4.05387146 -40.85742188 4.04882812 C-52.57162544 4.03808869 -64.28581067 4.02101085 -76 4 C-75.67 3.01 -75.34 2.02 -75 1 C-74.38592285 1.03552979 -73.7718457 1.07105957 -73.13916016 1.10766602 C-70.3014928 1.26726815 -67.46331787 1.41493662 -64.625 1.5625 C-63.17673828 1.64661133 -63.17673828 1.64661133 -61.69921875 1.73242188 C-56.04196139 2.01718315 -50.68783106 1.90835201 -45.07177734 1.13647461 C-43 1 -43 1 -40 2 C-39.01 2 -38.02 2 -37 2 C-36.31164062 2.01160156 -35.62328125 2.02320313 -34.9140625 2.03515625 C-33.78097656 2.04869141 -33.78097656 2.04869141 -32.625 2.0625 C-31.87476563 2.07410156 -31.12453125 2.08570313 -30.3515625 2.09765625 C-27.98843507 2.06666117 -27.98843507 2.06666117 -25.68212891 1.49780273 C-22.95467237 0.9915872 -20.50477987 0.90135119 -17.734375 0.9375 C-16.27644531 0.94910156 -16.27644531 0.94910156 -14.7890625 0.9609375 C-13.28472656 0.98027344 -13.28472656 0.98027344 -11.75 1 C-9.74484408 1.02538172 -7.73962739 1.04645798 -5.734375 1.0625 C-4.84975586 1.07410156 -3.96513672 1.08570313 -3.05371094 1.09765625 C-1.00686939 1.23111037 -1.00686939 1.23111037 0 0 Z " fill="#063682" transform="translate(484,677)"/>
<path d="M0 0 C0.28875 0.639375 0.5775 1.27875 0.875 1.9375 C1.82823451 4.15206079 1.82823451 4.15206079 4 5 C4.8515625 7.06640625 4.8515625 7.06640625 5.625 9.5625 C5.88539063 10.38878906 6.14578125 11.21507812 6.4140625 12.06640625 C6.60742188 12.70449219 6.80078125 13.34257812 7 14 C7.66 14 8.32 14 9 14 C9.33 15.32 9.66 16.64 10 18 C10.66 18 11.32 18 12 18 C12 19.32 12 20.64 12 22 C13.98 22 15.96 22 18 22 C18 22.99 18 23.98 18 25 C19.89454824 25.96087136 21.79069581 26.91858969 23.6875 27.875 C24.74324219 28.40867187 25.79898437 28.94234375 26.88671875 29.4921875 C29.55995905 30.78688105 32.2271133 31.94023254 35 33 C30.55910972 34.48029676 27.33425624 33.63348096 23 32 C12.34166181 25.74531695 4.55239893 17.53148984 0 6 C-0.6953125 3.26171875 -0.6953125 3.26171875 -1 1 C-0.67 0.67 -0.34 0.34 0 0 Z " fill="#0FA4EA" transform="translate(333,450)"/>
<path d="M0 0 C3.18446 2.92577838 4.48074641 5.94865709 6 10 C6 10.99 6 11.98 6 13 C4.68 12.01 3.36 11.02 2 10 C2 10.97582031 2 11.95164062 2 12.95703125 C2 17.63802083 2 22.31901042 2 27 C2.2784375 28.5159375 2.2784375 28.5159375 2.5625 30.0625 C3 33 3 33 2 35 C1.6694867 40.40486458 1.88266106 45.69264005 3 51 C3.66 51 4.32 51 5 51 C9.28571429 58.42857143 9.28571429 58.42857143 11 62 C9.82040968 60.85510351 8.64714104 59.70318017 7.50112915 58.52467346 C6.50734513 57.51530254 5.48214815 56.53585469 4.42733765 55.59043884 C0.92028821 52.13406064 -0.40805098 49.56660229 -0.68115234 44.61547852 C-0.6802106 42.53637904 -0.64679209 40.45711515 -0.5859375 38.37890625 C-0.57744781 37.27900864 -0.56895813 36.17911102 -0.56021118 35.04588318 C-0.52676073 31.55040435 -0.45149106 28.05727554 -0.375 24.5625 C-0.34488987 22.18558031 -0.31751591 19.80862428 -0.29296875 17.43164062 C-0.22699692 11.62029884 -0.12673085 5.81031734 0 0 Z " fill="#0D9DF1" transform="translate(331,493)"/>
<path d="M0 0 C0.495 0.99 0.495 0.99 1 2 C2.2375 1.773125 3.475 1.54625 4.75 1.3125 C6.859375 0.92578125 6.859375 0.92578125 9 1 C10.36208372 1.96047162 11.69936579 2.95782515 13 4 C12.10917725 3.98428955 11.21835449 3.9685791 10.30053711 3.95239258 C6.91766255 3.90051673 3.53522517 3.8632948 0.15209961 3.83520508 C-1.29751354 3.82034299 -2.74708365 3.80004733 -4.1965332 3.77368164 C-17.78704383 3.53309988 -30.14240772 5.02318868 -42.828125 10.328125 C-45 11 -45 11 -48 10 C-47.36191406 9.81824219 -46.72382812 9.63648438 -46.06640625 9.44921875 C-44.82697266 9.07216797 -44.82697266 9.07216797 -43.5625 8.6875 C-42.73878906 8.44386719 -41.91507813 8.20023437 -41.06640625 7.94921875 C-40.38449219 7.63597656 -39.70257812 7.32273437 -39 7 C-38.67 6.01 -38.34 5.02 -38 4 C-25.33966845 2.13911332 -12.79249621 0.5314934 0 0 Z " fill="#34D7F2" transform="translate(589,364)"/>
<path d="M0 0 C0.33 0 0.66 0 1 0 C1 12.21 1 24.42 1 37 C-2.96 34.69 -6.92 32.38 -11 30 C-13.76428949 28.76091936 -16.4257005 27.60755002 -19.25 26.5625 C-20.24193359 26.18061523 -20.24193359 26.18061523 -21.25390625 25.79101562 C-22.83242125 25.18477436 -24.4156698 24.59087725 -26 24 C-24.1875 22.9375 -24.1875 22.9375 -22 22 C-21.01 22.33 -20.02 22.66 -19 23 C-19 23.66 -19 24.32 -19 25 C-17.35 25 -15.7 25 -14 25 C-14 25.66 -14 26.32 -14 27 C-13.30132813 27.19335938 -12.60265625 27.38671875 -11.8828125 27.5859375 C-10.97273437 27.84632813 -10.06265625 28.10671875 -9.125 28.375 C-7.76761719 28.75785156 -7.76761719 28.75785156 -6.3828125 29.1484375 C-4 30 -4 30 -2 32 C-1.05761302 29.17283905 -0.86534353 27.36823877 -0.875 24.4375 C-0.87242187 23.65246094 -0.86984375 22.86742187 -0.8671875 22.05859375 C-0.87023634 19.93561023 -0.87023634 19.93561023 -2 18 C-1.34 18 -0.68 18 0 18 C0 12.06 0 6.12 0 0 Z " fill="#39C9EE" transform="translate(691,421)"/>
<path d="M0 0 C-0.33 0.99 -0.66 1.98 -1 3 C-2.134375 3.474375 -3.26875 3.94875 -4.4375 4.4375 C-8.43427544 6.19047169 -8.26308182 6.42595683 -10 10 C-11.76953125 11.5625 -11.76953125 11.5625 -13.8125 13 C-16.24285629 14.73785913 -18.56766006 16.46893657 -20.875 18.375 C-23 20 -23 20 -25 20 C-26.79341527 21.32854809 -26.79341527 21.32854809 -28.625 23 C-29.25664063 23.556875 -29.88828125 24.11375 -30.5390625 24.6875 C-31.02117188 25.120625 -31.50328125 25.55375 -32 26 C-27.9410278 16.82672283 -10.37911549 0 0 0 Z " fill="#25C6ED" transform="translate(575,408)"/>
<path d="M0 0 C1.41354624 0.09725624 2.82634913 0.20581506 4.23828125 0.32421875 C4.93373047 0.37255859 5.62917969 0.42089844 6.34570312 0.47070312 C9.71512226 0.71924104 13.00686046 1.08015407 16.3515625 1.58203125 C19.98784071 2.07042026 22.93901075 1.59218187 26.55078125 1.01171875 C28.88411458 1.01171875 31.21744792 1.01171875 33.55078125 1.01171875 C34.54078125 0.68171875 35.53078125 0.35171875 36.55078125 0.01171875 C36.55078125 0.67171875 36.55078125 1.33171875 36.55078125 2.01171875 C37.54078125 2.34171875 38.53078125 2.67171875 39.55078125 3.01171875 C32.64071106 4.29136138 25.74785604 4.19555074 18.73828125 4.19921875 C17.51818359 4.21146484 16.29808594 4.22371094 15.04101562 4.23632812 C7.96175891 4.24774015 1.42008151 3.76454728 -5.44921875 2.01171875 C-3.44921875 0.01171875 -3.44921875 0.01171875 0 0 Z " fill="#107CD8" transform="translate(405.44921875,586.98828125)"/>
<path d="M0 0 C1.48294556 0.00616333 1.48294556 0.00616333 2.99584961 0.01245117 C4.06770508 0.01438477 5.13956055 0.01631836 6.24389648 0.01831055 C7.36731445 0.03055664 8.49073242 0.04280273 9.64819336 0.05541992 C11.33912109 0.05638672 11.33912109 0.05638672 13.06420898 0.05737305 C21.44556019 0.10278675 21.44556019 0.10278675 22.58569336 1.24291992 C24.913873 1.61052723 27.24753186 1.94533573 29.58569336 2.24291992 C26.56972903 3.97913606 24.38599399 4.49878399 20.91772461 4.50854492 C20.02375977 4.51112305 19.12979492 4.51370117 18.20874023 4.51635742 C16.81751953 4.50475586 16.81751953 4.50475586 15.39819336 4.49291992 C14.49004883 4.5006543 13.5819043 4.50838867 12.64624023 4.51635742 C6.668481 4.49924143 1.37524942 3.73318359 -4.41430664 2.24291992 C-2.41430664 0.24291992 -2.41430664 0.24291992 0 0 Z " fill="#0A9BE7" transform="translate(373.414306640625,484.757080078125)"/>
<path d="M0 0 C0.99 0.33 1.98 0.66 3 1 C-5.34658933 10.11535413 -19.44895103 14.55242204 -31 18 C-31.66 18 -32.32 18 -33 18 C-33 17.01 -33 16.02 -33 15 C-31.3603125 14.814375 -31.3603125 14.814375 -29.6875 14.625 C-25.92618198 14.24535199 -25.92618198 14.24535199 -23 12 C-22.34 12.33 -21.68 12.66 -21 13 C-21 12.34 -21 11.68 -21 11 C-20.36191406 10.80664062 -19.72382813 10.61328125 -19.06640625 10.4140625 C-18.24011719 10.15367187 -17.41382813 9.89328125 -16.5625 9.625 C-15.73878906 9.36976563 -14.91507812 9.11453125 -14.06640625 8.8515625 C-11.82201984 8.19117773 -11.82201984 8.19117773 -11 6 C-9.36408573 5.08831861 -7.69109879 4.2422132 -6 3.4375 C-2.77672865 2.04743483 -2.77672865 2.04743483 0 0 Z " fill="#1589DF" transform="translate(484,570)"/>
<path d="M0 0 C1.11117188 0.1546875 2.22234375 0.309375 3.3671875 0.46875 C9.14571687 1.19138423 14.93916965 1.37218808 20.75390625 1.60546875 C25.24703253 1.80379548 29.57406205 2.12932368 34 3 C34 3.33 34 3.66 34 4 C25.75605062 6.37537524 17.24303853 6.74767951 9 4 C7.824375 4 6.64875 4 5.4375 4 C2 4 2 4 0 3 C0 2.01 0 1.02 0 0 Z " fill="#0D84DD" transform="translate(392,537)"/>
<path d="M0 0 C3.90544176 0.58791596 6.7169848 1.77640314 10.125 3.75 C20.57039146 9.66133476 20.57039146 9.66133476 32 13 C31.67 13.99 31.34 14.98 31 16 C24.70277443 14.60061654 18.93915684 12.50710309 13 10 C13 9.34 13 8.68 13 8 C11.700625 7.5978125 11.700625 7.5978125 10.375 7.1875 C7.05010779 6.01763052 4.04776362 4.7719556 1 3 C0.67 2.01 0.34 1.02 0 0 Z " fill="#0D89E0" transform="translate(355,522)"/>
<path d="M0 0 C0.99 0.66 1.98 1.32 3 2 C2.45730469 2.47050781 1.91460937 2.94101562 1.35546875 3.42578125 C0.64003906 4.04839844 -0.07539063 4.67101562 -0.8125 5.3125 C-1.52019531 5.92738281 -2.22789062 6.54226563 -2.95703125 7.17578125 C-4.96642356 8.91823481 -4.96642356 8.91823481 -6.546875 10.63671875 C-8.93077459 12.8732267 -12.01244553 13.74208233 -15 15 C-17.33878876 16.56328365 -17.33878876 16.56328365 -19 18 C-20.32 17.01 -21.64 16.02 -23 15 C-21.92621094 14.41992188 -20.85242188 13.83984375 -19.74609375 13.2421875 C-9.24058307 7.52838087 -9.24058307 7.52838087 0 0 Z " fill="#1299E3" transform="translate(475,515)"/>
<path d="M0 0 C3 1 3 1 4 3 C5.75682725 4.02215403 7.51600076 5.04195448 9.30859375 6 C11 7 11 7 13 9 C19.54911665 13.87512719 26.65045636 17.49311116 34 21 C34 21.66 34 22.32 34 23 C23.8357656 19.94458815 6.31828386 11.36648423 0.671875 1.734375 C0.45015625 1.16203125 0.2284375 0.5896875 0 0 Z " fill="#0F80DF" transform="translate(348,559)"/>
<path d="M0 0 C-2.70507827 3.23023999 -6.24372293 4.7801952 -9.9375 6.625 C-17.2521893 10.38189156 -23.59659605 14.84865827 -30 20 C-30.66 19.67 -31.32 19.34 -32 19 C-31.1875 16.5625 -31.1875 16.5625 -30 14 C-29.01 13.67 -28.02 13.34 -27 13 C-22.17610294 11.10827566 -18.01265816 8.86108274 -13.69921875 5.98828125 C-12 5 -12 5 -10 5 C-10 4.34 -10 3.68 -10 3 C-6.58168085 0.4606772 -4.24223102 -0.3636198 0 0 Z " fill="#36D4F3" transform="translate(614,448)"/>
<path d="M0 0 C2.65129994 2.39804144 4.2619362 4.98782717 6.0625 8.0625 C12.45613845 18.20921763 20.66799775 25.06793787 31 31 C30.01 31.33 29.02 31.66 28 32 C25.63485275 30.67454473 23.55371831 29.3388596 21.375 27.75 C20.75052979 27.29761963 20.12605957 26.84523926 19.48266602 26.37915039 C11.05353734 20.04615999 4.24473416 11.7052967 0 2 C0 1.34 0 0.68 0 0 Z " fill="#070E16" transform="translate(334,642)"/>
<path d="M0 0 C0.73919678 0.0508374 1.47839355 0.1016748 2.23999023 0.15405273 C7.49381913 0.55659409 12.4701679 1.36118215 17.5625 2.75 C17.5625 3.08 17.5625 3.41 17.5625 3.75 C5.6825 3.75 -6.1975 3.75 -18.4375 3.75 C-13.689147 -0.998353 -6.26440628 -0.50140927 0 0 Z " fill="#37D0F3" transform="translate(646.4375,440.25)"/>
<path d="M0 0 C1.32 0.33 2.64 0.66 4 1 C0.12715541 5.25786423 -3.91465028 7.97973748 -8.9375 10.75 C-9.62779297 11.14832031 -10.31808594 11.54664063 -11.02929688 11.95703125 C-15.02206765 14.18995519 -18.36587165 15.56487058 -23 16 C-20.66608806 13.66608806 -18.67782042 12.97767577 -15.625 11.75 C-10.80796107 9.66508702 -10.80796107 9.66508702 -7.625 5.6875 C-6.820625 4.3571875 -6.820625 4.3571875 -6 3 C-3.25 2.625 -3.25 2.625 -1 3 C-0.67 2.01 -0.34 1.02 0 0 Z " fill="#10B0E6" transform="translate(438,468)"/>
<path d="M0 0 C4.68265525 5.57786875 7.85412136 13.64114624 8.09765625 20.91796875 C7.8125 23.375 7.8125 23.375 7 27 C6.67 27 6.34 27 6 27 C6 25.02 6 23.04 6 21 C5.34 20.67 4.68 20.34 4 20 C3.7265625 18.1796875 3.7265625 18.1796875 3.625 15.875 C3.33760073 12.39857423 2.74248504 10.13582399 0.875 7.1875 C-1 4 -1 4 -0.75 1.5625 C-0.5025 1.046875 -0.255 0.53125 0 0 Z " fill="#39D0E8" transform="translate(685,361)"/>
<path d="M0 0 C4.78816533 0.5839226 8.60887583 2.03967671 13 4 C14.99263591 4.68836513 16.99041337 5.36281399 19 6 C17.75 7.5625 17.75 7.5625 16 9 C13.8125 8.6875 13.8125 8.6875 12 8 C12 7.34 12 6.68 12 6 C10.35 6 8.7 6 7 6 C6.67 5.34 6.34 4.68 6 4 C2.97065509 3.34227572 2.97065509 3.34227572 0 3 C0 2.01 0 1.02 0 0 Z " fill="#34CBEC" transform="translate(647,399)"/>
<path d="M0 0 C0.74507812 0.00451172 1.49015625 0.00902344 2.2578125 0.01367188 C4.0885764 0.02540754 5.91929873 0.0433415 7.75 0.0625 C7.42 0.7225 7.09 1.3825 6.75 2.0625 C3.31187949 2.82652678 0.28471921 3.0625 -3.25 3.0625 C-5.00635377 3.36054791 -6.75674957 3.69549991 -8.5 4.0625 C-9.39203125 4.248125 -10.2840625 4.43375 -11.203125 4.625 C-11.87859375 4.769375 -12.5540625 4.91375 -13.25 5.0625 C-12.92 3.7425 -12.59 2.4225 -12.25 1.0625 C-8.15996141 -0.08732602 -4.21822949 -0.04844256 0 0 Z " fill="#2AC7EE" transform="translate(611.25,394.9375)"/>
<path d="M0 0 C0 0.33 0 0.66 0 1 C-1.43279297 1.25523437 -1.43279297 1.25523437 -2.89453125 1.515625 C-10.20042106 2.88502409 -16.93430496 4.4452548 -23.828125 7.328125 C-26 8 -26 8 -29 7 C-28.36191406 6.81824219 -27.72382812 6.63648438 -27.06640625 6.44921875 C-26.24011719 6.19785156 -25.41382813 5.94648438 -24.5625 5.6875 C-23.32693359 5.32205078 -23.32693359 5.32205078 -22.06640625 4.94921875 C-21.38449219 4.63597656 -20.70257812 4.32273437 -20 4 C-19.67 3.01 -19.34 2.02 -19 1 C-12.62641289 0.03794912 -6.44070471 -0.10655578 0 0 Z " fill="#2AD2F0" transform="translate(570,367)"/>
<path d="M0 0 C0.99 0 1.98 0 3 0 C3 0.66 3 1.32 3 2 C4.65 1.67 6.3 1.34 8 1 C8.33 2.32 8.66 3.64 9 5 C10.32 4.67 11.64 4.34 13 4 C13 4.66 13 5.32 13 6 C14.32 6.33 15.64 6.66 17 7 C12.92320841 8.6852084 10.16924407 7.16939007 6.25 5.5625 C5.07953125 5.08941406 3.9090625 4.61632812 2.703125 4.12890625 C1.81109375 3.75636719 0.9190625 3.38382813 0 3 C0 2.01 0 1.02 0 0 Z " fill="#0E77D5" transform="translate(383,580)"/>
<path d="M0 0 C-0.66 0.66 -1.32 1.32 -2 2 C-2.66 1.67 -3.32 1.34 -4 1 C-4 1.66 -4 2.32 -4 3 C-4.66 3 -5.32 3 -6 3 C-6.33 3.66 -6.66 4.32 -7 5 C-10.31097606 7.20731737 -13.09409237 7.17754126 -17 7 C-12.40810425 2.03847797 -6.82699701 -0.6826997 0 0 Z " fill="#29CDF1" transform="translate(593,400)"/>
<path d="M0 0 C-0.33 0.99 -0.66 1.98 -1 3 C-1.65226562 3.10957031 -2.30453125 3.21914063 -2.9765625 3.33203125 C-8.1197623 4.26508962 -12.41899779 5.34784083 -17 8 C-16 5 -16 5 -13.671875 3.61328125 C-12.22554688 2.96939453 -12.22554688 2.96939453 -10.75 2.3125 C-9.31914062 1.65701172 -9.31914062 1.65701172 -7.859375 0.98828125 C-5.02126367 0.00734933 -2.9733844 -0.20075771 0 0 Z " fill="#0EC6EA" transform="translate(377,333)"/>
<path d="M0 0 C1.77007714 -0.08114106 3.54122098 -0.13925505 5.3125 -0.1875 C6.29863281 -0.22230469 7.28476562 -0.25710938 8.30078125 -0.29296875 C11 0 11 0 14 3 C8.06 3 2.12 3 -4 3 C-2.68 2.67 -1.36 2.34 0 2 C0 1.34 0 0.68 0 0 Z " fill="#062F75" transform="translate(393,678)"/>
<path d="M0 0 C0.66 0 1.32 0 2 0 C0.46356148 3.68069887 -1.78150945 5.98775204 -4.625 8.75 C-5.85089844 9.94882812 -5.85089844 9.94882812 -7.1015625 11.171875 C-7.72804688 11.77515625 -8.35453125 12.3784375 -9 13 C-9.66 12.34 -10.32 11.68 -11 11 C-9.88121617 9.82737096 -8.75476949 8.66204862 -7.625 7.5 C-6.68527344 6.52546875 -6.68527344 6.52546875 -5.7265625 5.53125 C-4 4 -4 4 -2 4 C-2 3.34 -2 2.68 -2 2 C-1.34 2 -0.68 2 0 2 C0 1.34 0 0.68 0 0 Z " fill="#1C9DE8" transform="translate(510,548)"/>
<path d="M0 0 C2 3.75 2 3.75 2 6 C2.66 6 3.32 6 4 6 C8.28571429 13.42857143 8.28571429 13.42857143 10 17 C6.97118824 14.14935363 4.22495927 11.18744908 1.625 7.9375 C1.10164063 7.28652344 0.57828125 6.63554688 0.0390625 5.96484375 C-1 4 -1 4 -0.6640625 1.75390625 C-0.44492187 1.17511719 -0.22578125 0.59632813 0 0 Z " fill="#0E81E1" transform="translate(332,538)"/>
<path d="M0 0 C3.78716158 1.50362259 7.55245187 3.05487001 11.3125 4.625 C12.38113281 5.07101562 13.44976562 5.51703125 14.55078125 5.9765625 C15.76314453 6.48316406 15.76314453 6.48316406 17 7 C12.68079105 8.43973632 9.20035271 7.65513023 5 6 C2.86022857 4.14553143 1.60166769 2.37666819 0 0 Z " fill="#0F8FE6" transform="translate(351,476)"/>
<path d="M0 0 C4.92127034 -0.16682272 8.50343896 -0.24828052 13 2 C12.67 2.66 12.34 3.32 12 4 C6.06 3.01 6.06 3.01 0 2 C0 1.34 0 0.68 0 0 Z " fill="#35D1F2" transform="translate(633,396)"/>
<path d="M0 0 C-4.99813269 3.12383293 -9.23167884 4.7856166 -15 6 C-11.29673879 1.70421699 -5.8141716 -2.5582355 0 0 Z " fill="#060F14" transform="translate(548,375)"/>
<path d="M0 0 C0 3.39593478 -0.52165948 4.06619881 -2.5 6.6875 C-2.9640625 7.31011719 -3.428125 7.93273437 -3.90625 8.57421875 C-4.2671875 9.04472656 -4.628125 9.51523437 -5 10 C-5.66 9.67 -6.32 9.34 -7 9 C-5.50517801 4.74550664 -4.1016749 2.05083745 0 0 Z " fill="#15A3E3" transform="translate(503,487)"/>
<path d="M0 0 C-3.12621626 3.39417765 -5.56541027 5.6062718 -10 7 C-9.1875 4.0625 -9.1875 4.0625 -8 1 C-5.07175348 0.02391783 -3.04386724 -0.08226668 0 0 Z " fill="#2EC2EC" transform="translate(592,461)"/>
<path d="M0 0 C2.5 1.375 2.5 1.375 5 3 C5 3.66 5 4.32 5 5 C6.32 5.66 7.64 6.32 9 7 C8.01 7.495 8.01 7.495 7 8 C4.8359375 7.00390625 4.8359375 7.00390625 2.375 5.5625 C1.55773437 5.08941406 0.74046875 4.61632812 -0.1015625 4.12890625 C-0.72804688 3.75636719 -1.35453125 3.38382812 -2 3 C-1.34 2.67 -0.68 2.34 0 2 C0 1.34 0 0.68 0 0 Z " fill="#36CCE6" transform="translate(632,377)"/>
<path d="M0 0 C4.62 0 9.24 0 14 0 C13.01 0.66 12.02 1.32 11 2 C10.34 1.67 9.68 1.34 9 1 C9 1.66 9 2.32 9 3 C6.03 2.67 3.06 2.34 0 2 C0 1.34 0 0.68 0 0 Z " fill="#32C3F2" transform="translate(566,332)"/>
<path d="M0 0 C1.32 0.33 2.64 0.66 4 1 C1.03 3.97 -1.94 6.94 -5 10 C-5 6.07176899 -3.48245551 4.93381106 -1 2 C-0.67 1.34 -0.34 0.68 0 0 Z " fill="#085CA9" transform="translate(577,519)"/>
<path d="M0 0 C0.66 0 1.32 0 2 0 C3.4375 1.75 3.4375 1.75 5 4 C5.556875 4.7425 6.11375 5.485 6.6875 6.25 C7.120625 6.8275 7.55375 7.405 8 8 C7.67 8.66 7.34 9.32 7 10 C5.82438854 8.90536178 4.6597511 7.79892814 3.5 6.6875 C2.52546875 5.76517578 2.52546875 5.76517578 1.53125 4.82421875 C0 3 0 3 0 0 Z " fill="#083480" transform="translate(347,657)"/>
<path d="M0 0 C5.94 1.485 5.94 1.485 12 3 C10.68 3.99 9.36 4.98 8 6 C5.36 4.68 2.72 3.36 0 2 C0 1.34 0 0.68 0 0 Z " fill="#071228" transform="translate(402,624)"/>
<path d="M0 0 C0.33 0.66 0.66 1.32 1 2 C-0.98 4.64 -2.96 7.28 -5 10 C-5.33 9.34 -5.66 8.68 -6 8 C-4.74516551 4.57772411 -2.6348519 2.45919511 0 0 Z " fill="#07519C" transform="translate(556,545)"/>
<path d="M0 0 C2.61527381 2.36620011 4.26440562 4.942048 6 8 C5.01 8.495 5.01 8.495 4 9 C3.01 8.01 2.02 7.02 1 6 C0.67 6.66 0.34 7.32 0 8 C0 5.36 0 2.72 0 0 Z " fill="#0E86E4" transform="translate(332,497)"/>
<path d="M0 0 C0 3.58912412 -0.66436554 4.10857029 -3 6.6875 C-3.556875 7.31011719 -4.11375 7.93273437 -4.6875 8.57421875 C-5.120625 9.04472656 -5.55375 9.51523437 -6 10 C-6 6.61976483 -5.12544378 4.16531063 -4 1 C-3.01 1 -2.02 1 -1 1 C-0.67 0.67 -0.34 0.34 0 0 Z " fill="#2CBFF0" transform="translate(562,487)"/>
<path d="M0 0 C-2.35277269 2.72426311 -4.62496331 3.8141763 -8 5 C-8.66 4.34 -9.32 3.68 -10 3 C-6.48812804 0.59185923 -4.27343092 -0.36629408 0 0 Z " fill="#33C7EF" transform="translate(614,448)"/>
<path d="M0 0 C-0.33 1.32 -0.66 2.64 -1 4 C-3.83967231 4 -6.23735711 3.59732819 -9 3 C-5.73209435 0.82139623 -3.91954654 0 0 0 Z " fill="#22BDE2" transform="translate(598,397)"/>
<path d="M0 0 C3.96 0 7.92 0 12 0 C11.67 0.66 11.34 1.32 11 2 C6.63113288 3.19150921 4.04365799 3.021829 0 1 C0 0.67 0 0.34 0 0 Z " fill="#34D1F5" transform="translate(607,395)"/>
<path d="M0 0 C0.66 0 1.32 0 2 0 C2.66 2.97 3.32 5.94 4 9 C2.68 8.67 1.36 8.34 0 8 C0 5.36 0 2.72 0 0 Z " fill="#073783" transform="translate(331,619)"/>
<path d="M0 0 C4.455 1.98 4.455 1.98 9 4 C9 4.66 9 5.32 9 6 C5.08788267 4.84414715 2.1254959 3.64465038 -1 1 C-0.67 0.67 -0.34 0.34 0 0 Z " fill="#0F78D6" transform="translate(373,576)"/>
<path d="M0 0 C0 3.30941204 -0.40339294 5.11090151 -2 8 C-4.625 8.8125 -4.625 8.8125 -7 9 C-6.02180976 7.68677212 -5.0424189 6.37443848 -4.0625 5.0625 C-3.51722656 4.33160156 -2.97195313 3.60070312 -2.41015625 2.84765625 C-1 1 -1 1 0 0 Z " fill="#20C5EE" transform="translate(534,443)"/>
<path d="M0 0 C2.97 1.98 2.97 1.98 6 4 C5.01 5.485 5.01 5.485 4 7 C3.01 6.34 2.02 5.68 1 5 C1 4.34 1 3.68 1 3 C0.01 2.67 -0.98 2.34 -2 2 C-1.34 1.34 -0.68 0.68 0 0 Z " fill="#0B8BE2" transform="translate(349,515)"/>
<path d="M0 0 C0.66 0 1.32 0 2 0 C2 1.32 2 2.64 2 4 C2.99 4.66 3.98 5.32 5 6 C4.01 6.33 3.02 6.66 2 7 C-0.1875 5.5625 -0.1875 5.5625 -2 4 C-1.34 2.68 -0.68 1.36 0 0 Z " fill="#0A5796" transform="translate(679,495)"/>
<path d="M0 0 C-0.33 0.66 -0.66 1.32 -1 2 C-2.66666667 2.33333333 -4.33333333 2.66666667 -6 3 C-6.33 3.66 -6.66 4.32 -7 5 C-7.66 3.68 -8.32 2.36 -9 1 C-5.92677456 0.08941469 -3.19902639 -0.08886184 0 0 Z " fill="#085999" transform="translate(658,443)"/>
<path d="M0 0 C0.66 0.33 1.32 0.66 2 1 C-0.64 3.97 -3.28 6.94 -6 10 C-6 6.41087588 -5.33563446 5.89142971 -3 3.3125 C-2.443125 2.68988281 -1.88625 2.06726563 -1.3125 1.42578125 C-0.879375 0.95527344 -0.44625 0.48476563 0 0 Z " fill="#050C11" transform="translate(473,437)"/>
<path d="M0 0 C3.63 0 7.26 0 11 0 C11 0.66 11 1.32 11 2 C6.70700357 3.26264601 4.12168689 2.62950412 0 1 C0 0.67 0 0.34 0 0 Z " fill="#0A93EE" transform="translate(398,539)"/>
<path d="M0 0 C0 0.99 0 1.98 0 3 C-3 5.1875 -3 5.1875 -6 7 C-6.66 6.67 -7.32 6.34 -8 6 C-5.36 4.02 -2.72 2.04 0 0 Z " fill="#090C14" transform="translate(597,507)"/>
<path d="M0 0 C0.66 0.33 1.32 0.66 2 1 C0.02 3.31 -1.96 5.62 -4 8 C-4.66 7.01 -5.32 6.02 -6 5 C-4.06745228 2.9754262 -2.36841312 1.57894208 0 0 Z " fill="#18A7E3" transform="translate(512,475)"/>
<path d="M0 0 C3 1 3 1 4.25 3.375 C5 6 5 6 4 9 C0 3.375 0 3.375 0 0 Z " fill="#073581" transform="translate(338,646)"/>
<path d="M0 0 C-2.64738916 1.4606285 -3.89448334 2 -7 2 C-7.99 1.67 -8.98 1.34 -10 1 C-6.42181037 -1.33958553 -4.07775191 -0.9267618 0 0 Z " fill="#0E88DA" transform="translate(441,537)"/>
</svg>
